<svg id="Layer_1" data-name="Layer 1" xmlns="http://www.w3.org/2000/svg" viewBox="0 0 200 200"><defs><style>.cls-1{fill:#f1f0f0;}.cls-2{fill:#aaaeb1;fill-rule:evenodd;}</style></defs><path class="cls-1" d="M149,57.5a2,2,0,0,1,2,2v81a2,2,0,0,1-2,2H51a2,2,0,0,1-2-2v-81a2,2,0,0,1,2-2h98m0-2H51a4,4,0,0,0-4,4v81a4,4,0,0,0,4,4h98a4,4,0,0,0,4-4v-81a4,4,0,0,0-4-4Z"/><rect class="cls-1" x="59" y="131.17" width="82" height="2"/><rect class="cls-1" x="59" y="86.58" width="2" height="45.37"/><path class="cls-2" d="M68.93,119.33a2.25,2.25,0,0,0,1.49-4L79.48,100a2,2,0,0,0,.75.14,2.23,2.23,0,0,0,1.56-.64l7.67,5.37a2.17,2.17,0,0,0-.2.92,2.26,2.26,0,1,0,3.85-1.61l8.83-13.25a2.31,2.31,0,0,0,2.14-.21l8.16,8.15a2.22,2.22,0,0,0-.39,1.27,2.26,2.26,0,0,0,2.26,2.26,2.19,2.19,0,0,0,1.45-.55l7.85,6.28a2.3,2.3,0,0,0-.27,1,2.26,2.26,0,0,0,4.52,0,2.21,2.21,0,0,0-.39-1.26l8.16-8.16a2.22,2.22,0,0,0,1.27.39,2.26,2.26,0,1,0-1.87-1l-8.16,8.15a2.29,2.29,0,0,0-1.27-.38,2.23,2.23,0,0,0-1.45.54l-7.85-6.27a2.34,2.34,0,0,0,.27-1.05,2.26,2.26,0,0,0-2.26-2.26,2.22,2.22,0,0,0-1.27.39l-8.15-8.16a2.26,2.26,0,0,0-1.88-3.52,2.26,2.26,0,0,0-2.25,2.26,2.23,2.23,0,0,0,.67,1.6l-8.84,13.25a2.27,2.27,0,0,0-2.44.47l-7.66-5.37a2.33,2.33,0,0,0,.2-.92,2.26,2.26,0,1,0-3.75,1.69L69.68,115a2.26,2.26,0,1,0-.75,4.38Z"/><path class="cls-2" d="M136.7,104.65a2.25,2.25,0,0,0-1.75,3.68l-8.46,10.16a2.22,2.22,0,0,0-3.08.93l-7.07-2.07a2.4,2.4,0,0,0,0-.28,2.26,2.26,0,0,0-4-1.47l-7.47-4.53a2.21,2.21,0,0,0,.14-.78,2.26,2.26,0,0,0-4.51,0,2.33,2.33,0,0,0,.26,1L93,117.62a2.24,2.24,0,0,0-1.46-.55,2.27,2.27,0,0,0-2.22,1.83H82.44a2.26,2.26,0,0,0-4.47.43,2.19,2.19,0,0,0,.14.77l-7.5,4.5a2.25,2.25,0,1,0,.58,1.51,2.15,2.15,0,0,0-.14-.77l7.5-4.51a2.25,2.25,0,0,0,3.89-1.07H89.3a2.26,2.26,0,0,0,4.48-.43,2.22,2.22,0,0,0-.27-1l7.85-6.27a2.24,2.24,0,0,0,3.12-.2l7.5,4.54a2.18,2.18,0,0,0-.13.72,2.25,2.25,0,0,0,4.23,1.08l7.09,2.09a1.92,1.92,0,0,0,0,.22,2.26,2.26,0,1,0,4-1.42l8.46-10.16a2.35,2.35,0,0,0,1.09.28,2.26,2.26,0,1,0,0-4.51Z"/><rect class="cls-1" x="59.01" y="67.12" width="35" height="2"/></svg>