<svg xmlns="http://www.w3.org/2000/svg" viewBox="0 0 200 200"><defs><style>.cls-1,.cls-2{fill:#a9aeb1;}.cls-2{fill-rule:evenodd;}.cls-3{fill:none;}</style></defs><g id="Layer_2" data-name="Layer 2"><g id="Layer_1-2" data-name="Layer 1"><rect class="cls-1" x="33.98" y="67.43" width="2.26" height="70.02"/><rect class="cls-1" x="125.46" y="80.99" width="2.14" height="67.76"/><rect class="cls-1" x="67.86" y="101.31" width="2.26" height="70.02" transform="translate(205.31 67.34) rotate(90)"/><rect class="cls-1" x="65.6" y="52.75" width="2.26" height="25.98"/><rect class="cls-1" x="146.92" y="52.75" width="2.26" height="25.98"/><rect class="cls-1" x="70.12" y="59.24" width="26.09" height="12.99"/><rect class="cls-1" x="98.07" y="59.24" width="16.77" height="12.99"/><rect class="cls-1" x="116.71" y="59.24" width="13.04" height="12.99"/><rect class="cls-1" x="131.61" y="59.24" width="7.45" height="12.99"/><rect class="cls-1" x="140.93" y="59.24" width="3.73" height="12.99"/><rect class="cls-1" x="128.85" y="87.76" width="27.11" height="8.76"/><rect class="cls-1" x="128.85" y="110.49" width="36.14" height="8.76"/><rect class="cls-1" x="128.85" y="99.12" width="18.07" height="8.76"/><rect class="cls-1" x="128.85" y="121.85" width="9.04" height="8.76"/><rect class="cls-1" x="128.85" y="133.21" width="27.11" height="8.76"/><path class="cls-2" d="M44.81,119.18a2.25,2.25,0,0,0,1.49-4l9.06-15.39a2.27,2.27,0,0,0,.75.14,2.23,2.23,0,0,0,1.56-.64l7.67,5.37a2.17,2.17,0,0,0-.2.92A2.26,2.26,0,1,0,69,104l8.83-13.25A2.31,2.31,0,0,0,80,90.56l8.16,8.15a2.22,2.22,0,0,0-.39,1.27A2.26,2.26,0,0,0,90,102.24a2.19,2.19,0,0,0,1.45-.55L99.29,108a2.25,2.25,0,1,0,4.25,1,2.21,2.21,0,0,0-.39-1.26l8.16-8.16a2.22,2.22,0,0,0,1.27.39,2.26,2.26,0,1,0-2.26-2.26,2.19,2.19,0,0,0,.39,1.26l-8.16,8.16a2.29,2.29,0,0,0-1.27-.38,2.23,2.23,0,0,0-1.45.54L92,101a2.34,2.34,0,0,0,.27-1A2.26,2.26,0,0,0,90,97.72a2.22,2.22,0,0,0-1.27.39L80.57,90A2.29,2.29,0,0,0,81,88.68a2.26,2.26,0,1,0-3.84,1.61l-8.84,13.25a2.28,2.28,0,0,0-2.44.46l-7.66-5.36a2.33,2.33,0,0,0,.2-.92,2.26,2.26,0,1,0-3.75,1.69L45.56,114.8a2,2,0,0,0-.75-.14,2.26,2.26,0,0,0,0,4.52Z"/><path class="cls-2" d="M112.58,104.5a2.25,2.25,0,0,0-1.75,3.68l-8.46,10.16a2.22,2.22,0,0,0-3.08.93l-7.07-2.07c0-.1,0-.19,0-.28a2.26,2.26,0,0,0-4-1.47l-7.47-4.53a2.21,2.21,0,0,0,.14-.78,2.26,2.26,0,1,0-4.51,0,2.33,2.33,0,0,0,.26,1l-7.84,6.27a2.26,2.26,0,0,0-3.68,1.29H58.32a2.26,2.26,0,0,0-4.47.43A2.19,2.19,0,0,0,54,120l-7.5,4.5a2.25,2.25,0,1,0,.58,1.51,2.15,2.15,0,0,0-.14-.77l7.5-4.51a2.25,2.25,0,0,0,3.89-1.07h6.86a2.26,2.26,0,0,0,4.48-.43,2.22,2.22,0,0,0-.27-1.05l7.85-6.27a2.25,2.25,0,0,0,1.45.54,2.22,2.22,0,0,0,1.67-.75l7.5,4.55a2.18,2.18,0,0,0-.13.72A2.25,2.25,0,0,0,92,118l7.09,2.09a1.66,1.66,0,0,0,0,.22,2.26,2.26,0,1,0,4-1.42l8.46-10.16a2.35,2.35,0,0,0,1.09.28,2.26,2.26,0,1,0,0-4.51Z"/><rect class="cls-3" width="200" height="200"/></g></g></svg>