<svg width="126" height="126" viewBox="0 0 126 126" fill="none" xmlns="http://www.w3.org/2000/svg">
<rect x="0.5" y="0.5" width="125" height="125" rx="7.5" fill="white" stroke="#E6E6E6"/>
<rect width="52.5" height="4.2" transform="matrix(1 0 0 -1 10.5 13.65)" fill="#DFE1E2"/>
<rect x="11" y="21.5" width="51.5" height="46.25" rx="7.5" fill="#FAFAFA" stroke="#E6E6E6"/>
<mask id="mask0_1540_16912" style="mask-type:alpha" maskUnits="userSpaceOnUse" x="10" y="21" width="53" height="48">
<rect x="11" y="21.5" width="51.5" height="46.25" rx="7.5" fill="#FAFAFA" stroke="#E6E6E6"/>
</mask>
<g mask="url(#mask0_1540_16912)">
<path d="M-4.2002 68.25H44.6248L20.4283 44.4782C20.3117 44.3586 20.1718 44.2635 20.0169 44.1985C19.862 44.1335 19.6953 44.1 19.5269 44.1C19.3585 44.1 19.1918 44.1335 19.0369 44.1985C18.882 44.2635 18.742 44.3586 18.6255 44.4782L-4.2002 68.25Z" fill="#F0F0F0"/>
<path d="M45.1499 64.05H71.3999L58.391 51.1305C58.3283 51.0656 58.2531 51.0139 58.1698 50.9785C58.0865 50.9432 57.9969 50.925 57.9064 50.925C57.8158 50.925 57.7262 50.9432 57.643 50.9785C57.5597 51.0139 57.4844 51.0656 57.4218 51.1305L45.1499 64.05Z" fill="#F0F0F0"/>
<path d="M6.8252 68.25H68.7752L38.0742 38.2769C37.9263 38.1261 37.7488 38.0061 37.5522 37.9242C37.3557 37.8422 37.1442 37.8 36.9305 37.8C36.7168 37.8 36.5054 37.8422 36.3088 37.9242C36.1123 38.0061 35.9347 38.1261 35.7868 38.2769L6.8252 68.25Z" fill="#DFE1E2"/>
<circle cx="52.2376" cy="36.4875" r="5.5125" fill="#DFE1E2"/>
</g>
</svg>
