<svg width="126" height="126" viewBox="0 0 126 126" fill="none" xmlns="http://www.w3.org/2000/svg">
<rect x="0.5" y="0.5" width="125" height="125" rx="7.5" fill="white" stroke="#E6E6E6"/>
<rect width="52.5" height="4.2" transform="matrix(1 0 0 -1 10.5 13.65)" fill="#DFE1E2"/>
<rect x="11" y="21.5" width="25.25" height="22.625" rx="7.5" fill="#FAFAFA" stroke="#E6E6E6"/>
<mask id="mask0_1540_16923" style="mask-type:alpha" maskUnits="userSpaceOnUse" x="10" y="21" width="27" height="24">
<rect x="10.5" y="21" width="26.25" height="23.625" rx="8" fill="#F0F0F0"/>
</mask>
<g mask="url(#mask0_1540_16923)">
<path d="M3.1499 44.625H27.5624L15.4641 32.7391C15.4059 32.6793 15.3359 32.6317 15.2584 32.5992C15.181 32.5668 15.0976 32.55 15.0134 32.55C14.9292 32.55 14.8459 32.5668 14.7684 32.5992C14.691 32.6317 14.621 32.6793 14.5627 32.7391L3.1499 44.625Z" fill="#F0F0F0"/>
<path d="M8.6626 44.625H39.6376L24.2871 29.6384C24.2132 29.5631 24.1244 29.5031 24.0261 29.4621C23.9278 29.4211 23.8221 29.4 23.7153 29.4C23.6084 29.4 23.5027 29.4211 23.4044 29.4621C23.3061 29.5031 23.2174 29.5631 23.1434 29.6384L8.6626 44.625Z" fill="#DFE1E2"/>
<circle cx="31.3686" cy="28.7437" r="2.75625" fill="#DFE1E2"/>
</g>
</svg>
