<svg xmlns="http://www.w3.org/2000/svg" viewBox="0 0 200 200"><defs><style>.cls-1{fill:#a9aeb1;}.cls-2{fill:none;}</style></defs><g id="Layer_2" data-name="Layer 2"><g id="Layer_1-2" data-name="Layer 1"><path class="cls-1" d="M115.38,93h-1.3l-1.47-7.08a2.06,2.06,0,0,0-2.4-1.58L78.18,91a2,2,0,0,0-1.29.87,2,2,0,0,0-.29,1.53l3.48,16.81v4.73a2,2,0,0,0,2,2h33.26a2,2,0,0,0,2-2V95A2,2,0,0,0,115.38,93ZM111,86.25l1.4,6.75H82.12a2,2,0,0,0-2,2v7.1L78.2,93.05a.4.4,0,0,1,.06-.3.39.39,0,0,1,.25-.17l32.11-6.65A.4.4,0,0,1,111,86.25Zm4.77,17.84-6-2.6a2,2,0,0,0-1.87.12l-12,7.28a1.24,1.24,0,0,1-1.31,0l-5.3-3.6a2.08,2.08,0,0,0-2.31,0L81.72,109V95a.4.4,0,0,1,.4-.4h33.26a.4.4,0,0,1,.4.4Z"/><circle class="cls-1" cx="85.77" cy="98.7" r="2.03"/><path class="cls-1" d="M151,134.25H49.32a2.69,2.69,0,0,1-2.69-2.69V70.19a2.69,2.69,0,0,1,2.69-2.69H151a2.7,2.7,0,0,1,2.69,2.69v61.37A2.7,2.7,0,0,1,151,134.25Zm-101.66-65a.9.9,0,0,0-.9.9v61.37a.9.9,0,0,0,.9.9H151a.9.9,0,0,0,.9-.9V70.19a.9.9,0,0,0-.9-.9Z"/><rect class="cls-1" x="137.48" y="113.15" width="1.79" height="20.91" transform="translate(-37.87 181.6) rotate(-59.99)"/><rect class="cls-1" x="59.5" y="68.92" width="1.79" height="19.28" transform="translate(-37.84 91.57) rotate(-59.99)"/><rect class="cls-1" x="124.52" y="78.85" width="23.72" height="1.79" transform="translate(-21.61 80.1) rotate(-30.45)"/><rect class="cls-1" x="51.6" y="123.27" width="18.42" height="1.79" transform="translate(-54.53 47.93) rotate(-30.45)"/><rect class="cls-2" width="200" height="200"/></g></g></svg>