<svg width="126" height="126" viewBox="0 0 126 126" fill="none" xmlns="http://www.w3.org/2000/svg">
<rect x="0.5" y="0.5" width="125" height="125" rx="7.5" fill="white" stroke="#E6E6E6"/>
<rect x="11" y="21.5" width="104" height="93.5" rx="7.5" fill="#FAFAFA" stroke="#E6E6E6"/>
<mask id="mask0_1540_16881" style="mask-type:alpha" maskUnits="userSpaceOnUse" x="10" y="10" width="106" height="106">
<rect x="10.5" y="10.5" width="105" height="105" rx="8" fill="#E6E6E6"/>
</mask>
<g mask="url(#mask0_1540_16881)">
<path d="M-18.8999 115.5H78.7501L30.357 67.9564C30.1239 67.7173 29.844 67.527 29.5342 67.397C29.2244 67.267 28.8911 67.2 28.5542 67.2C28.2174 67.2 27.8841 67.267 27.5743 67.397C27.2645 67.527 26.9846 67.7173 26.7515 67.9564L-18.8999 115.5Z" fill="#F0F0F0"/>
<path d="M79.7998 105H132.3L106.282 79.1611C106.157 79.0311 106.006 78.9277 105.84 78.8571C105.673 78.7864 105.494 78.75 105.313 78.75C105.132 78.75 104.952 78.7864 104.786 78.8571C104.619 78.9277 104.469 79.0311 104.344 79.1611L79.7998 105Z" fill="#F0F0F0"/>
<path d="M3.1499 115.5H127.05L65.6479 55.5537C65.3521 55.2522 64.997 55.0123 64.6039 54.8484C64.2108 54.6845 63.7879 54.6 63.3605 54.6C62.9332 54.6 62.5102 54.6845 62.1171 54.8484C61.724 55.0123 61.3689 55.2522 61.0731 55.5537L3.1499 115.5Z" fill="#DFE1E2"/>
<circle cx="93.9752" cy="51.975" r="11.025" fill="#DFE1E2"/>
</g>
<rect width="52.5" height="4.2" transform="matrix(1 0 0 -1 10.5 13.65)" fill="#DFE1E2"/>
</svg>
