<svg width="103" height="69" viewBox="0 0 103 69" fill="none" xmlns="http://www.w3.org/2000/svg">
<path fill-rule="evenodd" clip-rule="evenodd" d="M83.0437 26.0475C80.1254 11.1694 67.1217 0 51.5 0C39.0971 0 28.325 7.0725 22.9604 17.4225C10.0425 18.8025 0 29.7994 0 43.125C0 57.3994 11.5446 69 25.75 69H81.5417C93.3867 69 103 59.34 103 47.4375C103 36.0525 94.2021 26.8237 83.0437 26.0475Z" fill="#DFE1E2"/>
<path fill-rule="evenodd" clip-rule="evenodd" d="M52 21C42.064 21 34 29.064 34 39C34 48.936 42.064 57 52 57C61.936 57 70 48.936 70 39C70 29.064 61.936 21 52 21ZM48.4 48L39.4 39L41.938 36.462L48.4 42.906L62.062 29.244L64.6 31.8L48.4 48Z" fill="white"/>
</svg>
