<svg id="Layer_1" data-name="Layer 1" xmlns="http://www.w3.org/2000/svg" viewBox="0 0 200 200"><defs><style>.cls-1{fill:#f1f0f0;}.cls-2{fill:#f2f0f0;}.cls-3{fill:#aaaeb1;}</style></defs><rect class="cls-1" x="49" y="57.5" width="102" height="12" rx="2"/><path class="cls-2" d="M149,57.5a2,2,0,0,1,2,2v8a2,2,0,0,1-2,2H51a2,2,0,0,1-2-2v-8a2,2,0,0,1,2-2h98m0-2H51a4,4,0,0,0-4,4v8a4,4,0,0,0,4,4h98a4,4,0,0,0,4-4v-8a4,4,0,0,0-4-4Z"/><path class="cls-2" d="M149,81.5a2,2,0,0,1,2,2v57a2,2,0,0,1-2,2H51a2,2,0,0,1-2-2v-57a2,2,0,0,1,2-2h98m0-2H51a4,4,0,0,0-4,4v57a4,4,0,0,0,4,4h98a4,4,0,0,0,4-4v-57a4,4,0,0,0-4-4Z"/><rect class="cls-3" x="56.01" y="88.38" width="25.18" height="7" rx="2"/><rect class="cls-1" x="87.42" y="88.38" width="25.18" height="7" rx="2"/><rect class="cls-1" x="118.83" y="88.38" width="25.18" height="7" rx="2"/><rect class="cls-3" x="56.01" y="102.5" width="47.72" height="2"/><rect class="cls-3" x="56.01" y="111.5" width="88" height="2"/><rect class="cls-3" x="56.01" y="120.5" width="62.82" height="2"/></svg>