<svg xmlns="http://www.w3.org/2000/svg" viewBox="0 0 200 200"><defs><style>.cls-1{fill:#a9aeb1;}.cls-2{fill:none;}</style></defs><g id="Layer_2" data-name="Layer 2"><g id="Layer_1-2" data-name="Layer 1"><path class="cls-1" d="M169.46,138H30.54a2.61,2.61,0,0,1-2.47-2.71V64.71A2.61,2.61,0,0,1,30.54,62H169.46a2.61,2.61,0,0,1,2.47,2.71v70.58A2.61,2.61,0,0,1,169.46,138ZM30.54,63.81a.86.86,0,0,0-.82.9v70.58a.86.86,0,0,0,.82.9H169.46a.86.86,0,0,0,.82-.9V64.71a.86.86,0,0,0-.82-.9Z"/><rect class="cls-1" x="28.89" y="74.67" width="138.1" height="1.81"/><rect class="cls-1" x="28.89" y="90.05" width="138.1" height="1.81"/><rect class="cls-1" x="28.89" y="105.43" width="138.1" height="1.81"/><rect class="cls-1" x="28.89" y="120.81" width="138.1" height="1.81"/><rect class="cls-1" x="35.09" y="68.29" width="23.39" height="3.62"/><rect class="cls-1" x="68.61" y="68.29" width="19.47" height="3.62"/><rect class="cls-1" x="89.99" y="68.29" width="2.47" height="3.62"/><rect class="cls-1" x="60.13" y="68.33" width="2.47" height="3.62"/><rect class="cls-1" x="127.54" y="68.33" width="2.47" height="3.62"/><rect class="cls-1" x="161.24" y="68.33" width="2.47" height="3.62"/><rect class="cls-1" x="102.13" y="68.29" width="23.39" height="3.62"/><rect class="cls-1" x="135.65" y="68.29" width="23.39" height="3.62"/><rect class="cls-1" x="35.09" y="81.86" width="23.39" height="1.81"/><rect class="cls-1" x="68.61" y="81.86" width="23.39" height="1.81"/><rect class="cls-1" x="102.13" y="81.86" width="23.39" height="1.81"/><rect class="cls-1" x="135.65" y="81.86" width="23.39" height="1.81"/><rect class="cls-1" x="35.09" y="98.15" width="23.39" height="1.81"/><rect class="cls-1" x="68.61" y="98.15" width="23.39" height="1.81"/><rect class="cls-1" x="102.13" y="98.15" width="23.39" height="1.81"/><rect class="cls-1" x="135.65" y="98.15" width="23.39" height="1.81"/><rect class="cls-1" x="35.09" y="113.53" width="23.39" height="1.81"/><rect class="cls-1" x="68.61" y="113.53" width="23.39" height="1.81"/><rect class="cls-1" x="102.13" y="113.53" width="23.39" height="1.81"/><rect class="cls-1" x="135.65" y="113.53" width="23.39" height="1.81"/><rect class="cls-1" x="35.09" y="128.91" width="23.39" height="1.81"/><rect class="cls-1" x="68.61" y="128.91" width="23.39" height="1.81"/><rect class="cls-1" x="102.13" y="128.91" width="23.39" height="1.81"/><rect class="cls-1" x="135.65" y="128.91" width="23.39" height="1.81"/><rect class="cls-2" width="200" height="200"/></g></g></svg>