<svg xmlns="http://www.w3.org/2000/svg" viewBox="0 0 200 200"><defs><style>.cls-1{fill:#a9aeb1;}.cls-2{fill:none;}</style></defs><g id="Layer_2" data-name="Layer 2"><g id="Layer_1-2" data-name="Layer 1"><path class="cls-1" d="M47.69,65.29l-2,.08L45,68.85H43.56l.25-4.69h10.3l.19,4.69H53l-.67-3.48-2-.08v9.35l2.18.18v1h-6.8v-1l2-.18Z"/><path class="cls-1" d="M56.59,74V68.38h-1V67.5c.31-.12.71-.27,1-.39a1.75,1.75,0,0,0,.49-.76,16.73,16.73,0,0,0,.52-1.6H59l.08,2.34h2.29v1.29H59.12V72.6c0,1.65.06,1.78.74,1.78a4.78,4.78,0,0,0,1.43-.25l.33.94a5.47,5.47,0,0,1-3,.89C57.24,76,56.59,75.35,56.59,74Z"/><rect class="cls-1" x="43.65" y="83.32" width="76.85" height="4.96"/><rect class="cls-1" x="43.65" y="95.4" width="112.79" height="2.48"/><rect class="cls-1" x="43.65" y="104.08" width="97.92" height="2.48"/><rect class="cls-1" x="43.65" y="112.75" width="112.79" height="2.48"/><rect class="cls-1" x="54.8" y="121.43" width="89.24" height="2.48"/><rect class="cls-1" x="54.8" y="130.11" width="97.92" height="2.48"/><rect class="cls-1" x="54.8" y="138.78" width="89.24" height="2.48"/><path class="cls-1" d="M70.58,62.65V61.21a9.27,9.27,0,0,0-3.92,1.08,9.27,9.27,0,0,0-3.93-1.08v1.44a6.2,6.2,0,0,1,3.16.89V75.46a6.31,6.31,0,0,1-3.16.88v1.44a9.27,9.27,0,0,0,3.93-1.08,9.27,9.27,0,0,0,3.92,1.08V76.34a6.27,6.27,0,0,1-3.15-.88V63.54A6.16,6.16,0,0,1,70.58,62.65Z"/><rect class="cls-1" x="46.13" y="121.43" width="2.48" height="2.48"/><rect class="cls-1" x="46.13" y="130.11" width="2.48" height="2.48"/><rect class="cls-1" x="46.13" y="138.78" width="2.48" height="2.48"/><rect class="cls-2" width="200" height="200"/></g></g></svg>