<svg id="Layer_1" data-name="Layer 1" xmlns="http://www.w3.org/2000/svg" viewBox="0 0 200 200"><defs><style>.cls-1{fill:#aaaeb1;}.cls-2{fill:#f1f0f0;}</style></defs><rect class="cls-1" x="56.87" y="83.97" width="82" height="2"/><rect class="cls-1" x="56.87" y="92.97" width="60" height="2"/><rect class="cls-1" x="56.87" y="119.97" width="82" height="2"/><rect class="cls-1" x="67.87" y="101.97" width="60" height="2"/><rect class="cls-1" x="63.87" y="101.97" width="2" height="2"/><rect class="cls-1" x="67.87" y="110.97" width="50" height="2"/><rect class="cls-1" x="63.87" y="110.97" width="2" height="2"/><path class="cls-1" d="M56.87,66.71h2.06V75.1h4.4v1.73H56.87Z"/><path class="cls-1" d="M67.72,77a3.58,3.58,0,0,1-1.85-.46,3.1,3.1,0,0,1-1.22-1.29,4.3,4.3,0,0,1-.43-2,4.5,4.5,0,0,1,.43-2,3.34,3.34,0,0,1,1.22-1.33,3.92,3.92,0,0,1,3.72,0,3.16,3.16,0,0,1,1.21,1.32,4.48,4.48,0,0,1,.42,2,4.38,4.38,0,0,1-.41,1.93,3.17,3.17,0,0,1-1.2,1.31A3.54,3.54,0,0,1,67.72,77Zm0-1.52a1.21,1.21,0,0,0,.87-.32,1.79,1.79,0,0,0,.48-.83,3.94,3.94,0,0,0,.15-1.12,4.34,4.34,0,0,0-.14-1.09,1.7,1.7,0,0,0-.46-.82,1.42,1.42,0,0,0-1.77,0,1.74,1.74,0,0,0-.49.81,4.28,4.28,0,0,0,0,2.21,1.81,1.81,0,0,0,.47.85A1.22,1.22,0,0,0,67.73,75.45Z"/><path class="cls-1" d="M72.58,76.83V69.59h2V71.3a3,3,0,0,1,.49-1,2.17,2.17,0,0,1,1.8-.89H77l.13,0v2l-.15,0h-.16a4.25,4.25,0,0,0-1,0,1.82,1.82,0,0,0-.69.29,1.18,1.18,0,0,0-.39.5,1.69,1.69,0,0,0-.11.66v4Z"/><path class="cls-1" d="M79.91,73.68a2.2,2.2,0,0,0,.18,1,1.41,1.41,0,0,0,.52.63,1.5,1.5,0,0,0,.84.22,1.82,1.82,0,0,0,.92-.22,1.22,1.22,0,0,0,.55-.74h1.84a2.52,2.52,0,0,1-.61,1.32,3.32,3.32,0,0,1-1.19.83,4,4,0,0,1-3.35-.16,3.32,3.32,0,0,1-1.27-1.28,4,4,0,0,1-.45-1.95,4.42,4.42,0,0,1,.41-2A3.23,3.23,0,0,1,79.5,70a3.42,3.42,0,0,1,1.89-.51,3.38,3.38,0,0,1,1.86.47,2.92,2.92,0,0,1,1.14,1.29,4.58,4.58,0,0,1,.38,1.91v.56Zm0-1.22h3a2,2,0,0,0-.16-.79,1.27,1.27,0,0,0-.49-.58,1.49,1.49,0,0,0-.82-.21,1.39,1.39,0,0,0-.8.22,1.41,1.41,0,0,0-.51.6A1.67,1.67,0,0,0,79.9,72.46Z"/><path class="cls-1" d="M86.19,76.83V69.59h2v1a2.94,2.94,0,0,1,.89-.82,2.62,2.62,0,0,1,1.4-.34,2.29,2.29,0,0,1,.76.13A2.81,2.81,0,0,1,92,70a1.89,1.89,0,0,1,.55.64,2.84,2.84,0,0,1,.92-.83,2.48,2.48,0,0,1,1.27-.33,2.6,2.6,0,0,1,.82.13,2.2,2.2,0,0,1,.77.44,2.09,2.09,0,0,1,.56.8,3,3,0,0,1,.22,1.23v4.78H95V72.3a1.2,1.2,0,0,0-.17-.69,1,1,0,0,0-.43-.38,1.33,1.33,0,0,0-.56-.11,1.52,1.52,0,0,0-.55.1,1.2,1.2,0,0,0-.48.35,1,1,0,0,0-.19.62v4.64h-2V72.12a.85.85,0,0,0-.18-.55,1.1,1.1,0,0,0-.43-.34,1.31,1.31,0,0,0-.54-.11,1.4,1.4,0,0,0-.56.11,1.19,1.19,0,0,0-.47.36,1,1,0,0,0-.19.6v4.64Z"/><path class="cls-2" d="M149,57.5a2,2,0,0,1,2,2v81a2,2,0,0,1-2,2H51a2,2,0,0,1-2-2v-81a2,2,0,0,1,2-2h98m0-2H51a4,4,0,0,0-4,4v81a4,4,0,0,0,4,4h98a4,4,0,0,0,4-4v-81a4,4,0,0,0-4-4Z"/></svg>