<svg id="Layer_1" data-name="Layer 1" xmlns="http://www.w3.org/2000/svg" viewBox="0 0 200 200"><defs><style>.cls-1{fill:#f1f0f0;}.cls-2{fill:#aaaeb1;}</style></defs><path class="cls-1" d="M119.73,112.92H135.9a1.34,1.34,0,0,0,.95-2.29l-8.31-8.31a1.34,1.34,0,0,0-1.93,0l-7.85,8.31A1.34,1.34,0,0,0,119.73,112.92Z"/><path class="cls-1" d="M64.1,112.92H98.89a1.34,1.34,0,0,0,1-2.29L82,92.75a1.34,1.34,0,0,0-1.93,0L63.12,110.66A1.34,1.34,0,0,0,64.1,112.92Z"/><path class="cls-2" d="M73.16,112.92h52L99.39,87.18a1.33,1.33,0,0,0-1.92,0Z"/><circle class="cls-2" cx="127.82" cy="82.12" r="3.67"/><path class="cls-2" d="M139,67.67a2,2,0,0,1,2,2v46a2,2,0,0,1-2,2H61a2,2,0,0,1-2-2v-46a2,2,0,0,1,2-2h78m0-2H61a4,4,0,0,0-4,4v46a4,4,0,0,0,4,4h78a4,4,0,0,0,4-4v-46a4,4,0,0,0-4-4Z"/><path class="cls-1" d="M149,57.5a2,2,0,0,1,2,2v81a2,2,0,0,1-2,2H51a2,2,0,0,1-2-2v-81a2,2,0,0,1,2-2h98m0-2H51a4,4,0,0,0-4,4v81a4,4,0,0,0,4,4h98a4,4,0,0,0,4-4v-81a4,4,0,0,0-4-4Z"/><rect class="cls-1" x="59" y="126.67" width="35" height="2"/></svg>