<svg width="126" height="126" viewBox="0 0 126 126" fill="none" xmlns="http://www.w3.org/2000/svg">
<rect x="0.5" y="0.5" width="125" height="125" rx="7.5" fill="white" stroke="#E6E6E6"/>
<rect width="52.5" height="4.2" transform="matrix(1 0 0 -1 10.5 13.65)" fill="#DFE1E2"/>
<rect x="11" y="21.5" width="77.75" height="69.875" rx="7.5" fill="#FAFAFA" stroke="#E6E6E6"/>
<mask id="mask0_1540_16894" style="mask-type:alpha" maskUnits="userSpaceOnUse" x="10" y="21" width="80" height="71">
<rect x="10.5" y="21" width="78.75" height="70.875" rx="8" fill="#E6E6E6"/>
</mask>
<g mask="url(#mask0_1540_16894)">
<path d="M-11.5498 91.875H61.6877L25.3929 56.2173C25.218 56.0379 25.0081 55.8952 24.7758 55.7977C24.5434 55.7003 24.2934 55.65 24.0408 55.65C23.7882 55.65 23.5382 55.7003 23.3058 55.7977C23.0735 55.8952 22.8636 56.0379 22.6887 56.2173L-11.5498 91.875Z" fill="#F0F0F0"/>
<path d="M61.9502 83.475H101.325L81.8119 64.0958C81.7179 63.9983 81.605 63.9208 81.4801 63.8678C81.3552 63.8148 81.2207 63.7875 81.0849 63.7875C80.9491 63.7875 80.8147 63.8148 80.6898 63.8678C80.5649 63.9208 80.452 63.9983 80.358 64.0958L61.9502 83.475Z" fill="#F0F0F0"/>
<path d="M4.9873 91.875H97.9123L51.8608 46.9153C51.639 46.6891 51.3727 46.5092 51.0778 46.3863C50.783 46.2634 50.4658 46.2 50.1453 46.2C49.8248 46.2 49.5075 46.2634 49.2127 46.3863C48.9179 46.5092 48.6516 46.6891 48.4297 46.9153L4.9873 91.875Z" fill="#DFE1E2"/>
<circle cx="73.1062" cy="44.2313" r="8.26875" fill="#DFE1E2"/>
</g>
</svg>
