<svg id="Layer_1" data-name="Layer 1" xmlns="http://www.w3.org/2000/svg" viewBox="0 0 200 200"><defs><style>.cls-1{fill:#f1f0f0;}.cls-2{fill:#aaaeb1;}</style></defs><path class="cls-1" d="M149,57.5a2,2,0,0,1,2,2v81a2,2,0,0,1-2,2H51a2,2,0,0,1-2-2v-81a2,2,0,0,1,2-2h98m0-2H51a4,4,0,0,0-4,4v81a4,4,0,0,0,4,4h98a4,4,0,0,0,4-4v-81a4,4,0,0,0-4-4Z"/><rect class="cls-2" x="55" y="62.5" width="90" height="7" rx="2"/><rect class="cls-1" x="55.25" y="74.5" width="90" height="10" rx="2"/><rect class="cls-2" x="61.75" y="78.5" width="21" height="2"/><rect class="cls-2" x="89.75" y="78.5" width="21" height="2"/><rect class="cls-2" x="117.75" y="78.5" width="21" height="2"/><rect class="cls-1" x="55.25" y="89.5" width="90" height="10" rx="2"/><rect class="cls-2" x="61.75" y="93.5" width="21" height="2"/><rect class="cls-2" x="89.75" y="93.5" width="21" height="2"/><rect class="cls-2" x="117.75" y="93.5" width="21" height="2"/><rect class="cls-1" x="55.25" y="104.5" width="90" height="10" rx="2"/><rect class="cls-2" x="61.75" y="108.5" width="21" height="2"/><rect class="cls-2" x="89.75" y="108.5" width="21" height="2"/><rect class="cls-2" x="117.75" y="108.5" width="21" height="2"/><rect class="cls-1" x="55.25" y="119.5" width="90" height="10" rx="2"/><rect class="cls-2" x="61.75" y="123.5" width="21" height="2"/><rect class="cls-2" x="89.75" y="123.5" width="21" height="2"/><rect class="cls-2" x="117.75" y="123.5" width="21" height="2"/></svg>