<svg xmlns="http://www.w3.org/2000/svg" viewBox="0 0 127 127"><defs><style>.cls-1{fill:#f90;}</style></defs><title>Asset 2</title><g id="Layer_2" data-name="Layer 2"><g id="Layer_1-2" data-name="Layer 1"><path class="cls-1" d="M107.15,40.2A3.37,3.37,0,0,0,104,36.86h-4.1v6.79H104A3.4,3.4,0,0,0,107.15,40.2Z"/><path class="cls-1" d="M48.73,52.75c2.94,0,5.06-2,5.06-7.74,0-5.91-2.12-8.08-5.06-8.08S43.65,39.1,43.65,45C43.65,50.73,45.8,52.75,48.73,52.75Z"/><path class="cls-1" d="M48.78,72.91c-2.94,0-5.09,2.16-5.09,8.07,0,5.73,2.15,7.74,5.09,7.74s5.06-2,5.06-7.74C53.84,75.07,51.71,72.91,48.78,72.91Z"/><path class="cls-1" d="M105.91,72.91c-2.94,0-5.08,2.16-5.08,8.07,0,5.73,2.14,7.74,5.08,7.74S111,86.71,111,81C111,75.07,108.85,72.91,105.91,72.91Z"/><path class="cls-1" d="M63.5,0A63.5,63.5,0,1,0,127,63.5,63.5,63.5,0,0,0,63.5,0ZM18,31.58,23.24,41l5.19-9.43h7.8L26.78,47.06v11H19.62v-11L10.28,31.58Zm16.1,62.5H16.34V67.55h7.14V88.21H34.09ZM48.73,31.21c7.71,0,12.81,5.39,12.81,13.69s-5,13.57-12.81,13.57S35.85,53.15,35.85,44.9,41,31.21,48.73,31.21Zm.05,63.24c-7.89,0-12.88-5.32-12.88-13.58S41,67.18,48.78,67.18s12.8,5.4,12.8,13.69S56.59,94.45,48.78,94.45Zm16.6-62.87h7.23V47.43c0,3.67,2,5.06,4.22,5.06s4.22-1.39,4.22-5.06V31.58h7.23V47.13c0,6.76-2.9,11.34-11.45,11.34S65.38,53.89,65.38,47.13Zm23.75,62.5H84.45V91.15a9.38,9.38,0,0,1-7.57,3.3c-7.56,0-12.55-5.54-12.55-13.54,0-8.26,5.35-13.73,13-13.73,7.13,0,11.52,4.77,11.61,9.73H81.46c-.48-2.17-1.83-3.82-4.33-3.82s-5,1.87-5,7.6c0,6.49,3,7.56,5.32,7.56a4,4,0,0,0,3.86-2.5l.31-1H77V80l12.14.07Zm3.6-62.5h12c6.9,0,9.56,3.74,9.56,8.55a8.15,8.15,0,0,1-4.2,7.7l4.66,10.28h-7.32L103.61,49H99.86v9.14H92.73Zm13.18,62.87C98,94.45,93,89.13,93,80.87s5.14-13.69,12.88-13.69,12.81,5.4,12.81,13.69S113.73,94.45,105.91,94.45Z"/></g></g></svg>