<svg xmlns="http://www.w3.org/2000/svg" viewBox="0 0 214.57 134"><defs><style>.cls-1{fill:#f90;}</style></defs><title>Asset 2</title><g id="Layer_2" data-name="Layer 2"><g id="Layer_1-2" data-name="Layer 1"><path class="cls-1" d="M214.57,67a67.08,67.08,0,0,0-7.1-30l0,0-1.25-2.27L204,30.54l-.12.13A67.06,67.06,0,0,0,147.57,0h-.85a67.07,67.07,0,0,0-53.13,27.3l6.32,3.26a60.09,60.09,0,0,1,24.68-19c-5.47,6.31-9.91,14.92-12.88,25.07L118.18,40c5-17.81,14.73-30.73,25.89-32.72V51.44h-.49c-1.18,0-2.35-.11-3.51-.19l-.41,0c-1.13-.08-2.26-.18-3.37-.3l-.49,0c-1.09-.12-2.18-.26-3.26-.41l-.51-.08c-1.07-.16-2.13-.33-3.18-.52l-.49-.09-2.64-.53L124,56l.17,0c1.13.24,2.26.47,3.41.68l.2,0c1.15.2,2.31.39,3.48.56l.49.07c1.13.16,2.26.3,3.41.43l.6.06c1.14.12,2.29.23,3.44.31l.58,0c1.18.08,2.37.15,3.56.19h.71V75.56h-.71c-1.19,0-2.38.11-3.56.19l-.58,0c-1.15.08-2.3.19-3.44.31l-.6.06c-1.15.13-2.28.27-3.41.43l-.49.07c-1.17.17-2.33.36-3.48.56l-.2,0c-1.15.21-2.28.44-3.41.68l-.28.06c-1.11.25-2.2.51-3.28.79l-.5.12q-1.56.42-3.09.87l-.54.17-1.08.33a104.67,104.67,0,0,1-.85-13.3q0-3.28.2-6.5h-7c-.12,2.14-.19,4.3-.19,6.5a114.94,114.94,0,0,0,1.07,15.78c-.61.25-1.2.51-1.79.77l-.12,0c-1,.43-1.88.88-2.8,1.34l-.37.18c-.87.44-1.71.9-2.55,1.37l-.11.06v8.2l.1-.07c.71-.48,1.44-.94,2.19-1.4l.36-.21c.76-.45,1.54-.89,2.34-1.31l.36-.19c.82-.43,1.66-.84,2.51-1.24l.33-.15.76-.33c2.63,12.69,7.42,23.5,13.65,31.25l1.4,1.4L122,128.93A67,67,0,0,0,146.72,134h.85a67.06,67.06,0,0,0,56.29-30.67l.12.13,2.28-4.14,1.25-2.27,0,0A67.08,67.08,0,0,0,214.57,67Zm-70.5,59.72c-12.52-2.23-23.24-18.23-27.52-39.45l1.56-.52.16,0c1-.31,2.06-.61,3.11-.89l.32-.08c1-.27,2-.52,3.1-.76l.43-.1c1-.22,2.07-.43,3.13-.63l.49-.09c1.05-.19,2.11-.36,3.18-.52l.51-.08c1.08-.15,2.17-.29,3.26-.41l.49,0c1.11-.12,2.24-.22,3.37-.3l.41,0c1.16-.08,2.33-.14,3.51-.19h.49Zm54.71-91-.06.06c-.62.54-1.27,1.08-1.93,1.6l-.27.21c-.66.51-1.35,1-2.06,1.49l-.32.22c-.71.48-1.44.94-2.2,1.4l-.36.21c-.76.45-1.54.89-2.34,1.31l-.36.19c-.82.43-1.65.84-2.51,1.24l-.32.15c-.55.25-1.12.49-1.68.73C181.53,30.6,176.1,18.88,169,11A60.08,60.08,0,0,1,198.78,35.74ZM151.07,7.49c12.14,2.9,22.45,18.74,26.57,39.55l-.61.21-.17,0c-1,.31-2.05.61-3.1.89l-.32.08c-1,.27-2.06.52-3.11.76l-.43.1q-1.54.33-3.12.63l-.5.09c-1.05.19-2.11.36-3.18.52l-.51.08c-1.08.15-2.16.29-3.26.41l-.49,0q-1.67.18-3.36.3l-.42,0c-1.16.08-2.33.14-3.51.19h-.48Zm0,50.95h.7c1.2,0,2.38-.11,3.56-.19l.58,0c1.16-.08,2.3-.19,3.45-.31l.59-.06c1.15-.13,2.29-.27,3.42-.43l.48-.07c1.17-.17,2.34-.36,3.48-.56l.2,0c1.15-.21,2.29-.44,3.42-.68l.27-.06c1.11-.25,2.21-.51,3.29-.79l.49-.12c1-.28,2.08-.57,3.1-.88l.53-.16.12,0a103.46,103.46,0,0,1,0,26l-.12,0-.53-.16c-1-.31-2.06-.6-3.1-.88l-.49-.12c-1.08-.28-2.18-.54-3.29-.79L171,78c-1.13-.24-2.27-.47-3.42-.68l-.2,0c-1.15-.2-2.31-.39-3.48-.56l-.48-.07c-1.13-.16-2.27-.3-3.42-.43l-.59-.06c-1.15-.12-2.29-.23-3.45-.31l-.58,0c-1.18-.08-2.36-.15-3.56-.19h-.7Zm0,68.07V82.56h.48c1.18.05,2.35.11,3.51.19l.42,0q1.7.12,3.36.3l.49,0c1.1.12,2.18.26,3.26.41l.51.08c1.07.16,2.13.33,3.18.52l.5.09q1.58.3,3.12.63l.43.1c1,.24,2.09.49,3.11.76l.32.08c1.05.28,2.08.58,3.1.89l.17,0,.61.21C173.52,107.77,163.21,123.61,151.07,126.51ZM169,123c7.1-7.91,12.53-19.63,15.37-33.58.56.24,1.13.48,1.68.73l.32.15c.86.4,1.69.81,2.51,1.24l.36.19c.8.42,1.58.86,2.34,1.31l.36.21c.76.46,1.49.92,2.2,1.4l.32.22c.71.49,1.4,1,2.06,1.49l.27.21c.66.52,1.31,1.06,1.93,1.6l.06.06A60.08,60.08,0,0,1,169,123Zm33.15-31.1h0c-.71-.59-1.45-1.15-2.21-1.71l-.3-.22c-.74-.53-1.49-1-2.27-1.55l-.41-.26c-.77-.5-1.57-1-2.39-1.45l-.43-.24c-.83-.47-1.68-.93-2.55-1.37l-.36-.18c-.92-.46-1.85-.91-2.81-1.34l-.11,0c-.89-.4-1.81-.79-2.74-1.16a116.76,116.76,0,0,0,0-30.8c.93-.37,1.85-.76,2.74-1.16l.11,0c1-.43,1.89-.88,2.81-1.34l.36-.18c.87-.44,1.72-.9,2.55-1.37l.44-.24c.81-.47,1.61-1,2.38-1.45l.41-.26c.78-.5,1.53-1,2.27-1.55l.3-.22c.76-.56,1.5-1.12,2.21-1.71h0a60,60,0,0,1,0,49.86Z"/><path class="cls-1" d="M111.9,124.5H2.67L.35,118.38l14.15-12.5,2.32-.88H100.2l2.55,1.11,11.71,12.5Zm-100-7h91.91L98.68,112H18.15Z"/><rect class="cls-1" x="6.43" y="75.82" width="41.63" height="7" transform="translate(-52.11 106.49) rotate(-89.94)"/><rect class="cls-1" x="27.13" y="76.16" width="41.63" height="7" transform="translate(-31.76 127.51) rotate(-89.94)"/><rect class="cls-1" x="47.83" y="76.19" width="41.63" height="7" transform="translate(-11.13 148.25) rotate(-89.94)"/><rect class="cls-1" x="68.52" y="76.23" width="41.63" height="7" transform="translate(9.51 168.98) rotate(-89.94)"/><path class="cls-1" d="M115.06,53.81,1.5,53.61,0,47,56.81,19.84h3l56.74,27.31ZM16.91,46.64l82.75.15L58.31,26.88Z"/></g></g></svg>